<?xml version="1.0" encoding="utf-8"?>
<!-- Generator: Adobe Illustrator 23.0.3, SVG Export Plug-In . SVG Version: 6.00 Build 0)  -->
<svg version="1.1" id="Layer_1" xmlns="http://www.w3.org/2000/svg" xmlns:xlink="http://www.w3.org/1999/xlink" x="0px" y="0px"
	 viewBox="0 0 100 100" style="enable-background:new 0 0 100 100;" xml:space="preserve">
<style type="text/css">
	.st0{fill:#504F53;}
	.st1{fill:#FFFFFF;}
</style>
<g>
	<path class="st0" d="M50,0L50,0C22.4,0,0,22.4,0,50v0c0,27.6,22.4,50,50,50h0c27.6,0,50-22.4,50-50v0C100,22.4,77.6,0,50,0z"/>
	<path id="telegram_3_" class="st1" d="M70.9,29.5l-47.5,18c-2.6,0.8-2.5,3.3-0.6,3.9l11.9,3.7l4.6,14c0.6,1.5,1,2.1,2,2.1
		c1,0,1.4-0.3,2.4-1.3c1.2-1.1,3-2.9,6-5.7L62,73.4c2.3,1.3,3.9,0.6,4.5-2.1l7.8-38.4C75,29.5,73.1,28.5,70.9,29.5z M36.6,54.3
		l27.1-17c1.3-0.9,1.8,0.1,1.1,0.8L42.3,58.3l-1.2,10.1L36.6,54.3z"/>
</g>
</svg>
