<?xml version="1.0" encoding="utf-8"?>
<!-- Generator: Adobe Illustrator 23.0.3, SVG Export Plug-In . SVG Version: 6.00 Build 0)  -->
<svg version="1.1" id="Layer_1" xmlns="http://www.w3.org/2000/svg" xmlns:xlink="http://www.w3.org/1999/xlink" x="0px" y="0px"
	 viewBox="0 0 100 100" style="enable-background:new 0 0 100 100;" xml:space="preserve">
<style type="text/css">
	.st0{fill:#504F53;}
	.st1{fill:#FFFFFF;}
</style>
<g>
	<path class="st0" d="M50,0L50,0C22.4,0,0,22.4,0,50v0c0,27.6,22.4,50,50,50h0c27.6,0,50-22.4,50-50v0C100,22.4,77.6,0,50,0z"/>
	<path id="viber_3_" class="st1" d="M68,30.2c-1.9-1.7-4.2-2.6-6.6-3.3c-6.1-1.6-12.3-2-18.6-1.1c-3.2,0.4-6.2,1.3-9.1,2.9
		c-3.3,1.9-5.6,4.5-6.6,8.3c-0.7,2.6-1.1,5.3-1.2,8.1c-0.2,4-0.1,8,1,12c1.2,4.6,3.8,7.9,8.2,9.7c0.5,0.2,0.9,0.5,1.4,0.7
		c0.4,0.2,0.6,0.5,0.6,1c0,3.1,0,6.3,0,9.6c1.2-1.1,2-2,2.6-2.6c1.8-2,3.4-3.6,5.2-5.5c0.9-1,0.5-0.9,2-0.9c1.7,0,4.3,0.1,6,0
		c3.2-0.3,6.4-0.7,9.5-1.6c3.9-1.2,7.1-3.3,8.7-7.3c0.4-1.1,0.8-2.1,1.1-3.2c1.5-6.3,1.3-12.6,0-19C71.5,34.8,70.3,32.2,68,30.2z
		 M48.5,34c0-0.6,0.4-0.8,1-0.8c4.9,0.2,8.5,1.7,11.4,5.5c1.7,2.2,2.5,5.2,2.6,8c0,0.4,0,0.8,0,1.2c0,0.5-0.2,0.8-0.7,0.8
		c-0.5,0-0.8-0.3-0.8-0.8c-0.1-2.1-0.5-4.1-1.3-6c-1.5-3.7-4.4-5.7-8.2-6.7c-1-0.3-2-0.5-3-0.5C48.8,34.8,48.4,34.7,48.5,34z
		 M53.4,39.2c-1-0.3-2-0.6-3-0.8c-0.5-0.1-0.9-0.3-0.8-0.9c0.1-0.6,0.5-0.8,1-0.7c3.4,0.3,6.1,1.6,7.9,4.5c0.9,1.4,1.4,3.3,1.3,4.8
		c-0.1,1-0.2,1.3-0.8,1.3c-0.9,0-0.7-0.7-0.8-1.3c-0.1-0.8-0.3-1.6-0.5-2.4C57,41.5,55.6,40,53.4,39.2z M56.3,45
		c0,0.3,0,0.5-0.1,0.7c-0.1,0.4-0.3,0.6-0.7,0.6c-0.4,0-0.6-0.2-0.8-0.6c-0.1-0.2-0.1-0.5-0.1-0.8c-0.3-1.4-1-2.3-2.4-2.6
		c-0.2,0-0.3-0.1-0.5-0.1c-0.4-0.1-1-0.1-1-0.8c0-0.5,0.4-0.8,1.1-0.9c0.5,0,1.2,0.2,1.7,0.4C55.2,41.8,56,43,56.3,45z M63.4,59.4
		c-0.9,2.1-2.6,3.6-4.8,4.2c-0.8,0.2-1.6,0-2.4-0.3c-10.3-4.4-17.8-11.6-22-22.1c-0.3-0.8-0.5-1.5-0.5-2.3c0-2.7,2.4-5.2,5-5.3
		c0.7,0,1.3,0.2,1.9,0.7c1.8,1.7,3.3,3.7,4.4,5.9c0.6,1.2,0.3,2.1-0.7,3c-0.2,0.1-0.3,0.3-0.5,0.4c-1.4,1-1.7,2.1-1,3.7
		c1.1,2.6,2.9,4.7,5.2,6.2c0.9,0.6,1.8,1.1,2.9,1.4c1,0.3,1.7,0,2.3-0.8c0.1-0.1,0.1-0.2,0.2-0.3c1.3-1.8,2.8-2.2,4.7-1
		c1.7,1,3.2,2.2,4.7,3.5C63.7,57.2,63.9,58.2,63.4,59.4z"/>
</g>
</svg>
