<?xml version="1.0" encoding="utf-8"?>
<!-- Generator: Adobe Illustrator 23.0.3, SVG Export Plug-In . SVG Version: 6.00 Build 0)  -->
<svg version="1.1" id="Layer_1" xmlns="http://www.w3.org/2000/svg" xmlns:xlink="http://www.w3.org/1999/xlink" x="0px" y="0px"
	 viewBox="0 0 100 100" style="enable-background:new 0 0 100 100;" xml:space="preserve">
<style type="text/css">
	.st0{fill:#504F53;}
	.st1{fill-rule:evenodd;clip-rule:evenodd;fill:#FFFFFF;}
</style>
<g>
	<path class="st0" d="M50,0L50,0C22.4,0,0,22.4,0,50v0c0,27.6,22.4,50,50,50h0c27.6,0,50-22.4,50-50v0C100,22.4,77.6,0,50,0z"/>
	<g id="whatsapp_5_">
		<g>
			<path class="st1" d="M50.5,24.4c-13.8,0-24.9,11.2-24.9,24.9c0,4.7,1.3,9.1,3.6,12.9l-4.5,13.4l13.8-4.4c3.6,2,7.7,3.1,12.1,3.1
				c13.8,0,24.9-11.2,24.9-24.9C75.4,35.6,64.2,24.4,50.5,24.4z M50.5,70.1c-4.2,0-8.1-1.3-11.4-3.4l-8,2.6l2.6-7.7
				c-2.5-3.4-4-7.6-4-12.2c0-11.4,9.3-20.8,20.8-20.8c11.4,0,20.8,9.3,20.8,20.8C71.2,60.8,61.9,70.1,50.5,70.1z M62.2,55
				c-0.6-0.3-3.7-2-4.3-2.2c-0.6-0.2-1-0.4-1.4,0.3c-0.4,0.6-1.7,2-2.1,2.4c-0.4,0.4-0.8,0.4-1.4,0.1c-0.6-0.3-2.6-1.1-5-3.4
				c-1.8-1.8-3-3.9-3.4-4.5c-0.3-0.7,0-1,0.3-1.3c0.3-0.3,0.7-0.7,1-1.1c0.3-0.4,0.4-0.6,0.7-1c0.2-0.4,0.1-0.8,0-1.1
				c-0.1-0.3-1.3-3.5-1.8-4.8c-0.5-1.3-1-1.1-1.4-1.1c-0.4,0-0.8-0.1-1.2-0.1c-0.4,0-1.1,0.1-1.7,0.7c-0.6,0.6-2.3,2.1-2.4,5.2
				c-0.1,3.1,2,6.2,2.4,6.7c0.3,0.4,4.1,7.2,10.5,10c6.4,2.8,6.4,1.9,7.6,1.9c1.2-0.1,3.8-1.4,4.4-2.9c0.6-1.5,0.6-2.7,0.5-3
				C63.2,55.5,62.8,55.3,62.2,55z"/>
		</g>
	</g>
</g>
</svg>
